<svg xmlns="http://www.w3.org/2000/svg" width="238" height="205"><g fill="none" fill-rule="evenodd"><path fill="#FFF" d="M110.27 17.459h103.784v136.216H110.27z"/><path fill="#3B9988" d="M208.12 125.03c-2.73 5.638-6.38 10.296-10.946 13.972-4.57 3.678-9.76 6.437-15.573 8.276a59.346 59.346 0 0 1-17.978 2.759c-5.694 0-11.122-.741-16.285-2.226-5.16-1.482-9.85-3.586-14.061-6.318a42.695 42.695 0 0 1-10.857-10.055c-3.024-3.973-5.25-8.455-6.673-13.44l27.232-8.365c1.304 4.39 3.763 8.009 7.386 10.86 3.618 2.847 7.921 4.271 12.903 4.271 5.1 0 9.521-1.542 13.26-4.627 3.739-3.087 5.607-7.653 5.607-13.706 0-3.676-.773-6.763-2.315-9.254-1.542-2.493-3.53-4.48-5.961-5.964-2.433-1.482-5.194-2.52-8.277-3.116a49.092 49.092 0 0 0-9.256-.888c-4.508 0-9.64.507-15.393 1.513-5.76 1.01-10.89 2.344-15.397 4.004l3.025-72.084h77.246v25.63h-50.726l-1.067 19.934c1.895-.47 4.004-.799 6.316-.978a82.707 82.707 0 0 1 6.32-.267c6.289 0 12.22.832 17.797 2.493 5.578 1.663 10.415 4.183 14.508 7.562 4.091 3.383 7.323 7.566 9.7 12.55 2.37 4.982 3.558 10.796 3.558 17.44 0 7.714-1.364 14.39-4.094 20.024zM90.365 103.315h-22l21.437-57.883.563 1.555v56.328zM70.746.412L-.001 169.06h44.306l12.389-33.112h33.672v33.112h96.268c27.968 0 50.639-19.024 50.639-50.64V.411H70.746z"/><path fill="#000" fill-opacity=".87" d="M12.947 188.469a4.46 4.46 0 0 0-1.665-1.287c-.688-.32-1.347-.48-1.986-.48a5.6 5.6 0 0 0-.997.09 2.603 2.603 0 0 0-.915.327 2.286 2.286 0 0 0-.678.64c-.184.26-.275.594-.275 1 0 .347.072.639.217.868.145.232.357.435.635.608.282.177.613.333.999.478.389.145.82.297 1.303.45.698.23 1.42.487 2.175.767.75.282 1.438.651 2.054 1.115a5.882 5.882 0 0 1 1.537 1.72c.406.69.609 1.543.609 2.566 0 1.178-.218 2.197-.652 3.053a6.08 6.08 0 0 1-1.752 2.132 7.441 7.441 0 0 1-2.52 1.245c-.949.27-1.924.405-2.925.405a12.09 12.09 0 0 1-4.26-.767c-1.369-.51-2.51-1.24-3.418-2.187l3.246-3.302c.502.618 1.164 1.137 1.982 1.552.82.416 1.639.62 2.45.62a4.76 4.76 0 0 0 1.069-.115 2.59 2.59 0 0 0 .912-.38c.263-.17.47-.405.625-.692.155-.29.232-.635.232-1.04 0-.386-.097-.717-.29-.987-.193-.27-.47-.517-.825-.739a6.649 6.649 0 0 0-1.332-.608 74.869 74.869 0 0 0-1.81-.594 17.12 17.12 0 0 1-1.929-.753 6.474 6.474 0 0 1-1.677-1.115 5.154 5.154 0 0 1-1.188-1.648c-.3-.65-.451-1.436-.451-2.363 0-1.14.234-2.114.695-2.925a6.07 6.07 0 0 1 1.824-1.999 7.796 7.796 0 0 1 2.552-1.141 11.442 11.442 0 0 1 2.865-.365c1.16 0 2.343.212 3.55.637a9.157 9.157 0 0 1 3.171 1.883l-3.157 3.33zm34.559 6.486v8.691h-4.953v-8.69l-7.704-11.818h5.995l4.374 7.588 4.373-7.588h5.793zm39.136-6.486a4.46 4.46 0 0 0-1.666-1.287c-.688-.32-1.347-.48-1.986-.48-.326 0-.659.029-.997.09a2.603 2.603 0 0 0-.915.327 2.286 2.286 0 0 0-.678.64c-.183.26-.275.594-.275 1 0 .347.072.639.217.868.145.232.357.435.635.608a5.52 5.52 0 0 0 1 .478c.388.145.82.297 1.302.45.698.23 1.42.487 2.175.767.75.282 1.439.651 2.054 1.115a5.882 5.882 0 0 1 1.538 1.72c.405.69.608 1.543.608 2.566 0 1.178-.217 2.197-.652 3.053a6.08 6.08 0 0 1-1.752 2.132 7.441 7.441 0 0 1-2.52 1.245c-.948.27-1.924.405-2.925.405a12.09 12.09 0 0 1-4.26-.767c-1.369-.51-2.51-1.24-3.418-2.187l3.246-3.302c.502.618 1.164 1.137 1.982 1.552.82.416 1.639.62 2.45.62a4.76 4.76 0 0 0 1.069-.115 2.59 2.59 0 0 0 .912-.38c.263-.17.471-.405.625-.692.155-.29.232-.635.232-1.04 0-.386-.096-.717-.29-.987-.193-.27-.47-.517-.825-.739a6.649 6.649 0 0 0-1.332-.608 74.869 74.869 0 0 0-1.81-.594 17.194 17.194 0 0 1-1.929-.753 6.474 6.474 0 0 1-1.677-1.115 5.154 5.154 0 0 1-1.188-1.648c-.299-.65-.451-1.436-.451-2.363 0-1.14.234-2.114.695-2.925a6.07 6.07 0 0 1 1.825-1.999 7.796 7.796 0 0 1 2.55-1.141 11.442 11.442 0 0 1 2.866-.365c1.16 0 2.343.212 3.55.637a9.157 9.157 0 0 1 3.172 1.883l-3.157 3.33zm32.647-1.101v16.277h-4.953v-16.277h-5.793v-4.229h16.538v4.229zm24.538 16.277V183.14h13.787v4.168h-9.008v3.883h8.515v3.966h-8.515v4.26h9.529v4.228zm51.647 0l.116-14.512h-.087l-5.33 14.512h-3.475l-5.184-14.512h-.087l.116 14.512h-4.663V183.14h7.048l4.667 13.149h.116l4.465-13.15h7.164v20.506zm36.124-15.176a4.46 4.46 0 0 0-1.666-1.287c-.688-.32-1.347-.48-1.986-.48-.326 0-.659.029-.997.09a2.603 2.603 0 0 0-.915.327 2.286 2.286 0 0 0-.678.64c-.183.26-.275.594-.275 1 0 .347.072.639.217.868.145.232.357.435.635.608a5.52 5.52 0 0 0 1 .478c.388.145.82.297 1.303.45.697.23 1.419.487 2.174.767.75.282 1.439.651 2.054 1.115a5.882 5.882 0 0 1 1.538 1.72c.405.69.608 1.543.608 2.566 0 1.178-.217 2.197-.652 3.053a6.08 6.08 0 0 1-1.752 2.132 7.441 7.441 0 0 1-2.52 1.245c-.948.27-1.924.405-2.925.405a12.09 12.09 0 0 1-4.26-.767c-1.369-.51-2.51-1.24-3.418-2.187l3.246-3.302c.503.618 1.164 1.137 1.982 1.552.82.416 1.639.62 2.45.62a4.76 4.76 0 0 0 1.069-.115 2.59 2.59 0 0 0 .912-.38c.263-.17.471-.405.625-.692.155-.29.232-.635.232-1.04 0-.386-.096-.717-.29-.987-.193-.27-.47-.517-.825-.739a6.649 6.649 0 0 0-1.332-.608 74.87 74.87 0 0 0-1.81-.594 17.194 17.194 0 0 1-1.929-.753 6.474 6.474 0 0 1-1.677-1.115 5.154 5.154 0 0 1-1.188-1.648c-.299-.65-.451-1.436-.451-2.363 0-1.14.234-2.114.695-2.925a6.07 6.07 0 0 1 1.825-1.999 7.796 7.796 0 0 1 2.55-1.141 11.442 11.442 0 0 1 2.866-.365c1.16 0 2.343.212 3.55.637a9.157 9.157 0 0 1 3.172 1.883l-3.157 3.33z"/></g></svg>